<svg width="16" height="18" viewBox="0 0 16 18" fill="none" xmlns="http://www.w3.org/2000/svg">
<path d="M15.997 17.4084L14.592 4.38039C14.5625 4.10765 14.3264 3.90056 14.0447 3.90056H11.4039V3.3143C11.4039 1.48686 9.87688 0 8.00007 0C6.12311 0 4.59608 1.48686 4.59608 3.3143V3.90056H1.95526C1.6736 3.90056 1.4375 4.10765 1.40802 4.38039L0.00298721 17.4084C-0.0132324 17.5593 0.0371188 17.71 0.141347 17.8228C0.245716 17.9356 0.394372 18 0.55022 18H15.4496C15.6056 18 15.7543 17.9356 15.8585 17.8228C15.963 17.71 16.0132 17.5593 15.997 17.4084ZM5.69647 3.3143C5.69647 2.07765 6.72987 1.07144 8.00007 1.07144C9.27013 1.07144 10.3035 2.07765 10.3035 3.3143V3.90056H5.69647V3.3143ZM1.1612 16.9286L2.45073 4.972H4.59608V6.15262C4.59608 6.44843 4.84248 6.68834 5.14628 6.68834C5.45007 6.68834 5.69647 6.44843 5.69647 6.15262V4.972H10.3035V6.15262C10.3035 6.44843 10.5499 6.68834 10.8537 6.68834C11.1575 6.68834 11.4039 6.44843 11.4039 6.15262V4.972H13.5493L14.8388 16.9286H1.1612Z" fill="#FDFDFB"/>
</svg>
