<svg width="261" height="30" viewBox="0 0 261 30" fill="none" xmlns="http://www.w3.org/2000/svg">
<path d="M21.849 2.84961C19.8482 0.949868 17.007 0 13.3655 0C9.12376 0 5.76237 1.46438 3.36138 4.39314C1.12046 7.04486 0 10.4881 0 14.6834C0 20.1847 1.48061 24.2612 4.48185 26.9129C6.72277 28.8918 9.52392 29.9208 12.8853 29.9208C16.7269 29.9208 19.8082 28.6939 22.0891 26.2401C24.0099 24.2216 25.1304 21.7282 25.4505 18.7203H21.6489C21.2888 20.6201 20.6885 22.124 19.8882 23.2718C18.3676 25.4485 16.2067 26.5172 13.3255 26.5172C10.2442 26.5172 7.88325 25.4881 6.3226 23.3905C4.76196 21.3325 3.96163 18.6412 3.96163 15.3166C3.96163 11.2797 4.84199 8.27177 6.5627 6.29288C8.32343 4.35356 10.6044 3.36412 13.4055 3.36412C15.7265 3.36412 17.5272 3.87863 18.8478 4.94723C20.0883 6.01583 20.9686 7.48021 21.4088 9.30079H25.1704C24.9703 6.88654 23.8498 4.74934 21.849 2.84961Z" fill="#FDFDFB"/>
<path d="M53.8093 4.8285C51.3683 1.62269 47.6068 0 42.5647 0C37.7227 0 34.0412 1.781 31.5602 5.26385C29.6394 7.99472 28.679 11.2797 28.679 15.1187C28.679 19.3536 29.7995 22.876 32.0804 25.686C34.6014 28.5356 38.0429 30 42.4847 30C47.2066 30 50.8481 28.3377 53.4092 25.0528C55.5701 22.2427 56.6505 18.7203 56.6505 14.4855C56.6505 10.5673 55.6901 7.36148 53.8093 4.8285ZM50.4079 22.9156C48.8473 25.3298 46.3663 26.5567 42.9649 26.5567C39.3234 26.5567 36.7223 25.4881 35.1217 23.3113C33.521 21.1741 32.7207 18.5224 32.7207 15.3562C32.7207 11.438 33.641 8.46966 35.5218 6.45119C37.4026 4.43272 39.8036 3.44327 42.8048 3.44327C45.8461 3.44327 48.2471 4.43272 50.0478 6.49077C51.8085 8.50924 52.6889 11.2005 52.6889 14.5251C52.6889 17.6913 51.9286 20.5013 50.4079 22.9156Z" fill="#FDFDFB"/>
<path d="M63.8663 20.0264H60.1848C60.1448 23.0739 61.1452 25.4881 63.186 27.3087C65.1868 29.0897 67.988 30 71.5495 30C74.6307 30 77.3118 29.3272 79.6328 27.9815C81.9137 26.6359 83.0742 24.3799 83.0742 21.2137C83.0742 18.6807 82.1538 16.781 80.3531 15.4354C79.2726 14.6834 77.792 14.0897 75.8312 13.6544L71.8296 12.7441C69.1085 12.1108 67.3877 11.5963 66.5874 11.2005C65.4269 10.5673 64.8667 9.53826 64.8667 8.15304C64.8667 6.88654 65.3469 5.77837 66.3473 4.8285C67.3477 3.87863 69.0284 3.40369 71.3094 3.40369C74.1105 3.40369 76.1514 4.1161 77.3519 5.62005C77.9921 6.41161 78.3923 7.59895 78.5924 9.1029H82.2339C82.2339 5.97625 81.1934 3.64116 79.1126 2.21636C76.9917 0.791558 74.4307 0.079157 71.4294 0.079157C68.1481 0.079157 65.627 0.870713 63.8263 2.53298C62.0656 4.15567 61.1452 6.2533 61.1452 8.78628C61.1452 11.161 62.0656 12.942 63.9063 14.1293C64.9467 14.8021 66.7475 15.4354 69.2685 15.9894L73.1901 16.8602C75.271 17.3351 76.8316 17.8892 77.8321 18.5224C78.7924 19.1953 79.2726 20.3034 79.2726 21.847C79.2726 23.905 78.1522 25.3298 75.7912 26.1214C74.6307 26.5567 73.2702 26.7546 71.8296 26.7546C68.5482 26.7546 66.3073 25.8048 64.9868 23.9446C64.3065 22.9156 63.9463 21.6095 63.8663 20.0264Z" fill="#FDFDFB"/>
<path d="M101.722 24.7757L93.4782 0.791558H87.9159V29.1689H91.6374V12.4274C91.6374 11.7546 91.5974 10.686 91.5974 9.26121C91.5574 7.83641 91.5174 6.80739 91.5174 6.09499V5.22428L99.7608 29.1689H103.602L111.806 5.22428C111.806 6.76781 111.766 8.19261 111.766 9.53826C111.726 10.8839 111.726 11.8338 111.726 12.4274V29.1689H115.407V0.791558H109.925L101.722 24.7757Z" fill="#FDFDFB"/>
<path d="M144.98 4.8285C142.539 1.62269 138.777 0 133.735 0C128.893 0 125.212 1.781 122.731 5.26385C120.81 7.99472 119.849 11.2797 119.849 15.1187C119.849 19.3536 120.97 22.876 123.251 25.686C125.772 28.5356 129.213 30 133.655 30C138.377 30 142.018 28.3377 144.58 25.0528C146.74 22.2427 147.821 18.7203 147.821 14.4855C147.821 10.5673 146.86 7.36148 144.98 4.8285ZM141.578 22.9156C140.018 25.3298 137.537 26.5567 134.135 26.5567C130.494 26.5567 127.893 25.4881 126.292 23.3113C124.691 21.1741 123.891 18.5224 123.891 15.3562C123.891 11.438 124.811 8.46966 126.692 6.45119C128.573 4.43272 130.974 3.44327 133.975 3.44327C137.016 3.44327 139.417 4.43272 141.218 6.49077C142.979 8.50924 143.859 11.2005 143.859 14.5251C143.859 17.6913 143.099 20.5013 141.578 22.9156Z" fill="#FDFDFB"/>
<path d="M155.037 20.0264H151.355C151.315 23.0739 152.316 25.4881 154.356 27.3087C156.357 29.0897 159.158 30 162.72 30C165.801 30 168.482 29.3272 170.803 27.9815C173.084 26.6359 174.245 24.3799 174.245 21.2137C174.245 18.6807 173.324 16.781 171.523 15.4354C170.443 14.6834 168.962 14.0897 167.002 13.6544L163 12.7441C160.279 12.1108 158.558 11.5963 157.758 11.2005C156.597 10.5673 156.037 9.53826 156.037 8.15304C156.037 6.88654 156.517 5.77837 157.518 4.8285C158.518 3.87863 160.199 3.40369 162.48 3.40369C165.281 3.40369 167.322 4.1161 168.522 5.62005C169.162 6.41161 169.563 7.59895 169.763 9.1029H173.404C173.404 5.97625 172.364 3.64116 170.283 2.21636C168.162 0.791558 165.601 0.079157 162.6 0.079157C159.318 0.079157 156.797 0.870713 154.997 2.53298C153.236 4.15567 152.316 6.2533 152.316 8.78628C152.316 11.161 153.236 12.942 155.077 14.1293C156.117 14.8021 157.918 15.4354 160.439 15.9894L164.361 16.8602C166.441 17.3351 168.002 17.8892 169.002 18.5224C169.963 19.1953 170.443 20.3034 170.443 21.847C170.443 23.905 169.323 25.3298 166.962 26.1214C165.801 26.5567 164.441 26.7546 163 26.7546C159.719 26.7546 157.478 25.8048 156.157 23.9446C155.477 22.9156 155.117 21.6095 155.037 20.0264Z" fill="#FDFDFB"/>
<path d="M183.208 12.5066V0.791558H179.286V29.1689H183.208V15.9103H198.134V29.1689H202.056V0.791558H198.134V12.5066H183.208Z" fill="#FDFDFB"/>
<path d="M231.695 4.8285C229.254 1.62269 225.493 0 220.45 0C215.608 0 211.927 1.781 209.446 5.26385C207.525 7.99472 206.565 11.2797 206.565 15.1187C206.565 19.3536 207.685 22.876 209.966 25.686C212.487 28.5356 215.929 30 220.37 30C225.092 30 228.734 28.3377 231.295 25.0528C233.456 22.2427 234.536 18.7203 234.536 14.4855C234.536 10.5673 233.576 7.36148 231.695 4.8285ZM228.294 22.9156C226.733 25.3298 224.252 26.5567 220.851 26.5567C217.209 26.5567 214.608 25.4881 213.007 23.3113C211.407 21.1741 210.606 18.5224 210.606 15.3562C210.606 11.438 211.527 8.46966 213.408 6.45119C215.288 4.43272 217.689 3.44327 220.691 3.44327C223.732 3.44327 226.133 4.43272 227.934 6.49077C229.694 8.50924 230.575 11.2005 230.575 14.5251C230.575 17.6913 229.814 20.5013 228.294 22.9156Z" fill="#FDFDFB"/>
<path d="M252.476 0.791558H239.551V29.1689H243.473V17.1768H252.476C255.358 17.1768 257.519 16.3456 258.919 14.6834C260.32 13.0607 261 11.1214 261 8.90501C261 6.33245 260.24 4.35356 258.639 2.88918C257.078 1.50396 255.038 0.791558 252.476 0.791558ZM254.717 4.67019C256.278 5.42216 257.078 6.84697 257.078 8.94459C257.078 10.8048 256.518 12.0712 255.438 12.8232C254.357 13.5356 252.917 13.9314 251.196 13.9314H243.473V4.07652H251.196C252.717 4.07652 253.877 4.27441 254.717 4.67019Z" fill="#FDFDFB"/>
</svg>
