<svg width="22" height="19" viewBox="0 0 22 19" fill="none" xmlns="http://www.w3.org/2000/svg">
<path d="M10.2386 3.52152L10.8108 4.11688L11.383 3.52152C12.3002 2.56724 13.8052 1.37402 15.4503 1.37402C16.9786 1.37402 18.2307 1.90014 19.1003 2.76292C19.9706 3.62648 20.5042 4.874 20.5042 6.39888C20.5042 8.05803 19.8522 9.44205 18.8209 10.7198C17.7745 12.0162 16.3751 13.1596 14.9192 14.3453L14.9056 14.3564C13.5583 15.4532 12.0971 16.6427 10.9637 17.9742C10.9287 18.015 10.8822 18.0339 10.8393 18.0339H10.7841C10.7404 18.0339 10.6932 18.0145 10.6582 17.9736L10.6595 17.9752C9.53738 16.6544 8.08961 15.4741 6.75366 14.3848L6.70548 14.3455C5.24924 13.1595 3.84969 12.0155 2.80367 10.7192C1.77264 9.44146 1.12109 8.05765 1.12109 6.39888C1.12109 4.874 1.6548 3.62649 2.52518 2.76295C3.39479 1.90018 4.64727 1.37402 6.17599 1.37402C7.81973 1.37402 9.32074 2.5666 10.2386 3.52152Z" stroke="#FDFDFB"/>
</svg>
