<svg width="25" height="25" viewBox="0 0 25 25" fill="none" xmlns="http://www.w3.org/2000/svg">
<path d="M12.5 12C10.0188 12 8 9.98128 8 7.49998C8 5.01869 10.0188 3 12.5 3C14.9813 3 17 5.01873 17 7.50002C17 9.98131 14.9813 12 12.5 12ZM12.5 4.12501C10.6389 4.12501 9.12501 5.63891 9.12501 7.50002C9.12501 9.36112 10.6389 10.875 12.5 10.875C14.3611 10.875 15.875 9.36109 15.875 7.50002C15.875 5.63894 14.3611 4.12501 12.5 4.12501Z" fill="#FDFDFB"/>
<path d="M19.4642 21H5.53572C5.2396 21 5 20.7432 5 20.4258V16.473C5 15.8798 5.28302 15.3224 5.73818 15.0173C9.76125 12.3274 15.2424 12.3279 19.2613 15.0168C19.7169 15.3223 20 15.8798 20 16.473V20.4258C20 20.7432 19.7604 21 19.4642 21ZM6.07144 19.8516H18.9286V16.473C18.9286 16.2729 18.8386 16.0878 18.6937 15.9908C15.0153 13.5297 9.98726 13.528 6.30584 15.9914C6.16145 16.0878 6.07147 16.2729 6.07147 16.4731L6.07144 19.8516Z" fill="#FDFDFB"/>
</svg>
