<svg width="21" height="21" viewBox="0 0 21 21" fill="none" xmlns="http://www.w3.org/2000/svg">
<path d="M20.8718 20.2532L14.4822 13.8635C15.8093 12.3899 16.625 10.447 16.625 8.31247C16.625 3.72902 12.896 0 8.31251 0C3.72902 0 0 3.72902 0 8.31251C0 12.896 3.72902 16.625 8.31251 16.625C10.4471 16.625 12.3899 15.8093 13.8635 14.4822L20.2532 20.8718C20.3386 20.9573 20.4506 21 20.5625 21C20.6745 21 20.7864 20.9573 20.8719 20.8718C21.0427 20.7009 21.0427 20.4241 20.8718 20.2532ZM8.31251 15.75C4.21181 15.75 0.875027 12.4136 0.875027 8.31251C0.875027 4.2114 4.21181 0.874986 8.31251 0.874986C12.4132 0.874986 15.75 4.21136 15.75 8.31251C15.75 12.4137 12.4132 15.75 8.31251 15.75Z" fill="#FDFDFB"/>
</svg>
